<?xml version="1.0" encoding="utf-8"?>
<svg width="27px" height="25px" viewBox="0 0 27 25" version="1.1" xmlns:xlink="http://www.w3.org/1999/xlink" xmlns="http://www.w3.org/2000/svg">
  <path d="M26.1364 12.8236C26.1321 18.3363 22.5323 23.2284 17.1984 24.9704C16.9987 25.0308 16.7819 24.9977 16.6104 24.8808C16.4389 24.7584 16.337 24.5634 16.3359 24.3554L16.3359 20.9343C16.3642 20.0129 16.1385 19.101 15.6826 18.2948C15.6136 18.1894 15.6136 18.0543 15.6826 17.9489C15.7356 17.8517 15.8326 17.785 15.9439 17.7695C19.1323 17.4492 20.9095 16.2063 20.9095 12.8236C20.9863 11.2442 20.428 9.69833 19.3545 8.51842C19.511 8.02 19.5946 7.50231 19.6028 6.98085C19.5971 6.51332 19.5313 6.04837 19.4067 5.59703C19.3246 5.29608 19.0298 5.09973 18.7142 5.13576C17.5169 5.3024 16.4024 5.8309 15.5258 6.64771C13.903 6.34026 12.2353 6.34026 10.6125 6.64771C9.73589 5.8309 8.62138 5.3024 7.4241 5.13576C7.10851 5.09973 6.8137 5.29608 6.73154 5.59703C6.607 6.04837 6.54114 6.51332 6.53553 6.98085C6.54366 7.50231 6.62725 8.02 6.78381 8.51842C5.71031 9.69833 5.15195 11.2442 5.22881 12.8236C5.22881 16.3857 7.20196 17.5773 10.8216 17.872C10.3723 18.4493 10.0638 19.12 9.91994 19.8324L9.91994 19.9861C9.91365 20.0458 9.91365 20.1059 9.91994 20.1655C9.86557 20.5683 9.4962 20.8569 9.08364 20.819C8.88692 20.8099 8.69484 20.7574 8.52175 20.6652C7.80986 20.2401 7.18142 19.6933 6.6662 19.0508C6.33794 18.6858 5.98893 18.3393 5.62083 18.0129C5.38693 17.8144 5.12779 17.6464 4.84986 17.5132C4.6551 17.4059 4.4174 17.4059 4.22263 17.5132C4.03567 17.6308 3.92246 17.8336 3.92209 18.0514L3.92209 18.1282C3.92246 18.3461 4.03567 18.5488 4.22263 18.6664C4.6917 19.0514 5.09723 19.5052 5.42482 20.0118C5.97806 20.8618 6.68167 21.6082 7.50251 22.2156C8.04333 22.5711 8.68083 22.7587 9.33192 22.7538L9.80234 22.7538L9.80234 24.3554C9.80132 24.5634 9.69943 24.7584 9.52793 24.8808C9.3564 24.9977 9.13955 25.0308 8.9399 24.9704C2.60497 22.9015 -1.12023 16.4824 0.30165 10.0853C1.72353 3.6883 7.83506 -0.628617 14.4735 0.0750025C21.1119 0.778622 26.1414 6.27641 26.1364 12.8236Z" id="路径" fill="#CE8CA6" fill-rule="evenodd" stroke="none" />
</svg>