<?xml version="1.0" standalone="no"?><!DOCTYPE svg PUBLIC "-//W3C//DTD SVG 1.1//EN" "http://www.w3.org/Graphics/SVG/1.1/DTD/svg11.dtd"><svg t="1619325285013" class="icon" viewBox="0 0 1024 1024" version="1.1" xmlns="http://www.w3.org/2000/svg" p-id="1214" xmlns:xlink="http://www.w3.org/1999/xlink" width="200" height="200"><defs><style type="text/css"></style></defs><path d="M907.188 200.002l-64.706-78.598C830.938 105.254 810.166 96 789.328 96H234.67c-20.832 0-41.602 9.254-53.152 25.404l-64.702 78.598C102.936 213.846 96 234.67 96 257.772v577.78C96 886.4 137.6 928 188.45 928h647.106C886.404 928 928 886.4 928 835.55v-577.78c0-23.1-6.926-43.924-20.812-57.768zM512 766.218L257.78 512h161.78v-92.448h184.886V512h161.78L512 766.218zM193.068 188.442L230.04 142.22h554.662l43.93 46.222H193.068z" p-id="1215"></path></svg>