<?xml version="1.0" standalone="no"?><!DOCTYPE svg PUBLIC "-//W3C//DTD SVG 1.1//EN" "http://www.w3.org/Graphics/SVG/1.1/DTD/svg11.dtd"><svg t="1619325260709" class="icon" viewBox="0 0 1024 1024" version="1.1" xmlns="http://www.w3.org/2000/svg" p-id="952" xmlns:xlink="http://www.w3.org/1999/xlink" width="200" height="200"><defs><style type="text/css"></style></defs><path d="M810.4 128h-42c30 11.4 45.6 41.2 45.6 85.4v597.4c0 44.2-14 74.6-45.6 85.4h42c47.4 0 85.6-38.4 85.6-85.4V213.4c0-47-38.2-85.4-85.6-85.4z m-119.4 0.4c-2.8-0.2-5.6-0.4-8.4-0.4H213.4C166.4 128 128 166.4 128 213.4v597.4c0 47 38.4 85.4 85.4 85.4h469.4c2.8 0 5.6-0.2 8.4-0.4 43-4.2 77-40.8 77-85V213.4c-0.2-44.2-34.2-80.8-77.2-85zM416 512l-112-64-112 64V192h224v320z" p-id="953"></path></svg>