<?xml version="1.0" standalone="no"?><!DOCTYPE svg PUBLIC "-//W3C//DTD SVG 1.1//EN" "http://www.w3.org/Graphics/SVG/1.1/DTD/svg11.dtd"><svg t="1619325273271" class="icon" viewBox="0 0 1024 1024" version="1.1" xmlns="http://www.w3.org/2000/svg" p-id="1083" xmlns:xlink="http://www.w3.org/1999/xlink" width="200" height="200"><defs><style type="text/css"></style></defs><path d="M934.6 336.2c-3.6 0-7 0.6-10.2 2l-355.2 184.2h-0.2c-15.2 9.4-25 25-25 42.8v371.8c0 12.8 11.2 23 25.4 23 4.4 0 8.6-1 12.2-2.8 0.4-0.2 0.8-0.4 1-0.6L932 771.2l0.6-0.2c16.4-9 27.4-25.4 27.4-44.2V359.2c0-12.8-11.4-23-25.4-23z m-26-99.2L545.2 73.6S523.8 64 512 64c-11.8 0-33 9.6-33 9.6L115.2 237s-16 6.6-16 19c0 13.2 16.6 23 16.6 23l371 195.6c7.6 3.4 16.2 5.2 25.2 5.2 9.2 0 17.8-2 25.4-5.4l370.8-195.8s15-8 15-23c0.2-12.6-14.6-18.6-14.6-18.6zM455 522.4L99.6 338c-3-1.2-6.6-2-10.2-2-14 0-25.4 10.2-25.4 23v367.6c0 18.8 11 35.2 27.4 44.2l0.4 0.2 349.4 185.4c3.8 2.2 8.4 3.4 13.2 3.4 14 0 25.4-10.4 25.4-23V565.2c0.2-17.8-9.8-33.6-24.8-42.8z" p-id="1084"></path></svg>