<?xml version="1.0" standalone="no"?><!DOCTYPE svg PUBLIC "-//W3C//DTD SVG 1.1//EN" "http://www.w3.org/Graphics/SVG/1.1/DTD/svg11.dtd"><svg t="1619325302142" class="icon" viewBox="0 0 1024 1024" version="1.1" xmlns="http://www.w3.org/2000/svg" p-id="1476" xmlns:xlink="http://www.w3.org/1999/xlink" width="200" height="200"><defs><style type="text/css"></style></defs><path d="M884 214v282L458.4 903.4c16 16 41.6 24.6 57.6 24.6s45.6-7.4 62.8-24.6L960 544V288l-76-74z" p-id="1477"></path><path d="M768 96H448L88.6 471.2c-16 16-24 35.6-24.6 56.8-0.6 22.6 7.4 46.6 24.6 63.8l247.6 247.2c16 16 41.6 25 57.6 25s45.4-7.8 62.6-25L832 480V160l-64-64z m-61.4 205.4c-43.4 12.2-82.6-20-82.6-61.4 0-35.4 28.6-64 64-64 41.4 0 73.6 39.2 61.4 82.6-5.8 20.6-22.2 37-42.8 42.8z" p-id="1478"></path></svg>