<?xml version="1.0" standalone="no"?><!DOCTYPE svg PUBLIC "-//W3C//DTD SVG 1.1//EN" "http://www.w3.org/Graphics/SVG/1.1/DTD/svg11.dtd"><svg t="1619325461383" class="icon" viewBox="0 0 1024 1024" version="1.1" xmlns="http://www.w3.org/2000/svg" p-id="1608" xmlns:xlink="http://www.w3.org/1999/xlink" width="200" height="200"><defs><style type="text/css"></style></defs><path d="M832 128H515.2L153 503.2c-16 16-24.6 37-25 58-0.6 22.6 7.8 45.2 25 62.4l247.4 247.2c16 16 41.6 25 57.6 25s45.6-7.8 62.8-25L896 512V192l-64-64z m-61.4 205.4c-43.4 12.2-82.6-20-82.6-61.4 0-35.4 28.6-64 64-64 41.4 0 73.6 39.2 61.4 82.6-5.8 20.6-22.2 37-42.8 42.8z" p-id="1609"></path></svg>