<?xml version="1.0" encoding="utf-8"?>
<svg width="29px" height="24px" viewBox="0 0 29 24" version="1.1" xmlns:xlink="http://www.w3.org/1999/xlink" xmlns="http://www.w3.org/2000/svg">
  <path d="M26.459 5.76993C26.459 16.148 19.6752 23.6211 9.69775 23.949C5.4783 24.277 2.58762 22.9885 0 21.0441C2.89068 21.3721 6.78376 20.4116 8.69534 18.4438C5.80466 18.4438 4.17283 16.8039 3.21704 14.5784L5.80466 14.5784C3.21704 13.5944 1.25884 11.65 1.25884 8.41714C1.88826 8.74512 2.541 9.04966 3.84646 9.04966C1.58521 7.7612 0.303055 3.54439 1.91158 0.94403C4.80225 4.17691 8.34566 7.10525 14.1969 7.4098C12.5651 0.94403 20.9807 -2.33571 24.5241 1.90452C26.1559 1.57655 27.1117 0.94403 28.3706 0.264656C28.0442 1.90452 27.0884 2.86502 25.783 3.49754C27.0651 3.49754 28.0442 3.16957 29 2.53705C28.6969 3.82551 27.4148 5.13741 26.459 5.76993Z" id="路径" fill="#CE8CA6" fill-rule="evenodd" stroke="none" />
</svg>