<?xml version="1.0" standalone="no"?><!DOCTYPE svg PUBLIC "-//W3C//DTD SVG 1.1//EN" "http://www.w3.org/Graphics/SVG/1.1/DTD/svg11.dtd"><svg t="1617854323292" class="icon" viewBox="0 0 1024 1024" version="1.1" xmlns="http://www.w3.org/2000/svg" p-id="1353" xmlns:xlink="http://www.w3.org/1999/xlink" width="200" height="200"><defs><style type="text/css"></style></defs><path d="M740.067556 56.888889L910.222222 223.573333v576.853334c0 57.969778-6.144 78.961778-17.749333 100.124444a119.466667 119.466667 0 0 1-50.176 49.208889c-21.617778 11.320889-43.064889 17.351111-102.229333 17.351111H283.875556c-59.164444 0-80.611556-6.030222-102.229334-17.351111a119.466667 119.466667 0 0 1-50.176-49.152C119.921778 879.388444 113.777778 858.396444 113.777778 800.426667V223.573333c0-57.969778 6.144-78.961778 17.749333-100.124444a119.466667 119.466667 0 0 1 50.176-49.208889C203.320889 62.919111 224.711111 56.888889 283.875556 56.888889h456.135111zM568.888889 512H341.333333a56.888889 56.888889 0 1 0 0 113.777778h227.555556a56.888889 56.888889 0 1 0 0-113.777778zM455.111111 284.444444H341.333333a56.888889 56.888889 0 1 0 0 113.777778h113.777778a56.888889 56.888889 0 1 0 0-113.777778z" p-id="1354"></path></svg>